<svg width="739" height="545" viewBox="0 0 739 545" fill="none" xmlns="http://www.w3.org/2000/svg">
<path d="M351.035 545C512.52 545 643.429 533.511 643.429 519.338C643.429 505.166 512.52 493.677 351.035 493.677C189.551 493.677 58.6416 505.166 58.6416 519.338C58.6416 533.511 189.551 545 351.035 545Z" fill="#3F3D56"/>
<path d="M449.178 501.824H446.735C446.735 419.766 461.508 342.644 488.333 284.667C515.295 226.389 551.286 194.294 589.674 194.294V196.738C512.204 196.738 449.178 333.599 449.178 501.824Z" fill="#3F3D56"/>
<path d="M642.614 122.605C642.614 141.726 634.227 166.188 623.882 166.188C613.536 166.188 605.149 141.726 605.149 122.605C605.149 103.483 613.536 96.9434 623.882 96.9434C634.227 96.9434 642.614 103.483 642.614 122.605Z" fill="#E6E6E6"/>
<path d="M716.132 204.176C697.223 206.99 671.798 202.292 670.276 192.057C668.753 181.821 691.71 169.924 710.619 167.11C729.528 164.296 737.229 171.631 738.752 181.866C740.274 192.102 735.041 201.362 716.132 204.176Z" fill="#E6E6E6"/>
<path d="M632.334 276.919C625.572 259.033 624.766 233.185 634.443 229.525C644.12 225.865 660.615 245.778 667.377 263.664C674.14 281.549 668.608 290.633 658.931 294.294C649.254 297.954 639.096 294.804 632.334 276.919Z" fill="#E6E6E6"/>
<path d="M632.026 219.14C645.071 219.14 655.646 208.563 655.646 195.515C655.646 182.468 645.071 171.891 632.026 171.891C618.982 171.891 608.407 182.468 608.407 195.515C608.407 208.563 618.982 219.14 632.026 219.14Z" fill="#0F4901"/>
<path d="M313.163 510.785H310.719C310.719 342.56 247.693 205.699 170.224 205.699V203.255C208.612 203.255 244.603 235.35 271.565 293.628C298.39 351.605 313.163 428.727 313.163 510.785Z" fill="#3F3D56"/>
<path d="M117.283 131.566C117.283 150.687 125.67 175.149 136.016 175.149C146.362 175.149 154.749 150.687 154.749 131.566C154.749 112.444 146.362 105.904 136.016 105.904C125.67 105.904 117.283 112.444 117.283 131.566Z" fill="#E6E6E6"/>
<path d="M43.7655 213.137C62.6746 215.951 88.0993 211.253 89.6217 201.018C91.1442 190.782 68.188 178.885 49.2789 176.071C30.3698 173.257 22.6683 180.592 21.1458 190.827C19.6233 201.063 24.8564 210.323 43.7655 213.137Z" fill="#E6E6E6"/>
<path d="M127.564 285.88C134.326 267.994 135.132 242.146 125.455 238.486C115.778 234.826 99.2823 254.739 92.5201 272.624C85.758 290.51 91.29 299.594 100.967 303.255C110.644 306.915 120.801 303.765 127.564 285.88Z" fill="#E6E6E6"/>
<path d="M127.871 228.101C140.916 228.101 151.491 217.524 151.491 204.476C151.491 191.429 140.916 180.852 127.871 180.852C114.827 180.852 104.252 191.429 104.252 204.476C104.252 217.524 114.827 228.101 127.871 228.101Z" fill="#0F4901"/>
<path d="M149.862 505.897V458.647C149.862 458.647 168.595 475.755 149.862 509.97" fill="#3F3D56"/>
<path d="M150.48 504.672L163.755 459.326C163.755 459.326 176.926 481.01 149.336 508.581" fill="#3F3D56"/>
<path d="M478.906 495.306V448.057C478.906 448.057 497.639 465.164 478.906 499.38" fill="#3F3D56"/>
<path d="M479.525 494.081L492.8 448.735C492.8 448.735 505.971 470.419 478.38 497.99" fill="#3F3D56"/>
<path d="M408.862 497.751V450.501C408.862 450.501 390.13 467.609 408.862 501.824" fill="#3F3D56"/>
<path d="M408.244 496.525L394.969 451.18C394.969 451.18 381.798 472.863 409.389 500.434" fill="#3F3D56"/>
<path d="M348.727 59.4697C358.002 59.4697 366.897 63.1549 373.455 69.7145C380.013 76.2741 383.698 85.1709 383.698 94.4476V128.704H313.757V94.4476C313.757 89.8543 314.662 85.3059 316.419 81.0622C318.177 76.8184 320.753 72.9625 324 69.7145C327.247 66.4665 331.102 63.8901 335.345 62.1323C339.588 60.3745 344.135 59.4697 348.727 59.4697Z" fill="#2F2E41"/>
<path d="M383.337 132.671C370.51 141.785 353.424 145.3 335.028 147.095C347.702 136.809 342.735 125.448 335.028 113.92L363.148 111.035C363.961 121.5 372.074 127.951 383.337 132.671Z" fill="#FFB8B8"/>
<path d="M389.105 241.571L306.187 230.032C312.908 217.367 317.422 205.131 315.838 194.081C314.995 188.559 315.065 182.936 316.046 177.436L316.574 174.622C317.672 169.206 319.766 164.041 322.751 159.39C326.081 154.023 324.932 145.959 323.491 137.719L342.959 134.835C353.701 140.292 365.761 136.656 378.29 129.786L401.363 131.95C399.8 173.075 396.363 210.796 389.105 241.571Z" fill="#E6E6E6"/>
<path d="M458.325 488.941L442.462 491.826L340.075 313.691L299.697 491.826L285.277 491.105C284.961 390.154 280.423 279.314 304.831 236.265C313.988 214.529 327.999 193.716 322.77 172.336C343.309 178.323 363.982 177.895 384.779 171.615C383.803 197.268 384.728 221.303 388.384 243.013L458.325 488.941Z" fill="#0F4901"/>
<path d="M453.807 537.261C450.344 537.261 446.978 536.119 444.23 534.013C441.482 531.906 439.504 528.952 438.604 525.607L437.198 520.382C436.865 519.145 436.764 517.856 436.902 516.582L439.578 491.826C444.68 485.499 452.099 483.974 462.651 488.941L469.171 518.073C469.687 520.376 469.678 522.766 469.146 525.065C468.614 527.365 467.571 529.515 466.096 531.357C464.621 533.2 462.751 534.687 460.624 535.709C458.497 536.731 456.167 537.261 453.807 537.261Z" fill="#2F2E41"/>
<path d="M294.459 537.261C290.996 537.261 287.63 536.119 284.882 534.013C282.133 531.906 280.156 528.952 279.256 525.607L277.849 520.382C277.516 519.145 277.416 517.856 277.554 516.582L280.229 491.826C285.332 485.499 292.751 483.974 303.302 488.941L309.823 518.073C310.338 520.376 310.33 522.766 309.798 525.065C309.265 527.365 308.223 529.515 306.748 531.357C305.273 533.2 303.402 534.687 301.275 535.709C299.148 536.731 296.819 537.261 294.459 537.261Z" fill="#2F2E41"/>
<path d="M345.122 122.573C358.263 122.573 368.916 111.918 368.916 98.774C368.916 85.63 358.263 74.9746 345.122 74.9746C331.981 74.9746 321.328 85.63 321.328 98.774C321.328 111.918 331.981 122.573 345.122 122.573Z" fill="#FFB8B8"/>
<path d="M326.736 179.188C327.931 179.188 328.899 178.219 328.899 177.024C328.899 175.829 327.931 174.86 326.736 174.86C325.541 174.86 324.573 175.829 324.573 177.024C324.573 178.219 325.541 179.188 326.736 179.188Z" fill="#E6E6E6"/>
<path d="M381.535 179.188C382.729 179.188 383.698 178.219 383.698 177.024C383.698 175.829 382.729 174.86 381.535 174.86C380.34 174.86 379.371 175.829 379.371 177.024C379.371 178.219 380.34 179.188 381.535 179.188Z" fill="#E6E6E6"/>
<path d="M360.625 95.529L323.131 94.8651V70.2871H368.556L360.625 95.529Z" fill="#2F2E41"/>
<path d="M375.766 127.983H359.182C365.312 113.335 364.772 97.8848 359.182 81.8262H375.766V127.983Z" fill="#2F2E41"/>
<path d="M396.316 264.649L386.492 276.169C385.23 277.649 383.634 278.806 381.835 279.545C380.036 280.285 378.088 280.584 376.15 280.419C374.213 280.254 372.342 279.63 370.695 278.597C369.047 277.565 367.669 276.154 366.675 274.482C365.785 272.985 365.225 271.315 365.032 269.584C364.839 267.853 365.019 266.1 365.558 264.444C366.097 262.788 366.983 261.265 368.158 259.979C369.333 258.693 370.769 257.673 372.369 256.987L389.826 249.504L410.736 219.935L399.2 168.73L419.389 162.239L430.925 227.147L396.316 264.649Z" fill="#FFB8B8"/>
<path d="M320.607 270.044L330.431 281.565C331.693 283.044 333.289 284.202 335.088 284.941C336.887 285.68 338.835 285.98 340.773 285.815C342.71 285.65 344.581 285.025 346.228 283.993C347.876 282.96 349.254 281.55 350.248 279.878C351.138 278.381 351.698 276.711 351.891 274.979C352.083 273.248 351.904 271.496 351.365 269.839C350.826 268.183 349.939 266.661 348.765 265.375C347.59 264.089 346.154 263.069 344.554 262.383L327.097 254.899L306.187 225.33L317.723 174.126L297.534 167.635L285.998 232.542L320.607 270.044Z" fill="#FFB8B8"/>
<path d="M422.273 165.124C417.747 164.99 413.243 165.785 409.037 167.463C404.831 169.14 401.015 171.662 397.823 174.874L390.613 131.602L399.334 131.5C402.89 131.632 406.319 132.852 409.16 134.995C412.001 137.139 414.115 140.102 415.219 143.486L422.273 165.124Z" fill="#E6E6E6"/>
<path d="M294.65 170.52C299.176 170.385 303.68 171.181 307.886 172.858C312.092 174.535 315.908 177.058 319.1 180.269C327.445 167.609 328.654 152.831 326.31 136.998L317.589 136.896C314.033 137.027 310.604 138.247 307.763 140.391C304.922 142.534 302.808 145.498 301.704 148.881L294.65 170.52Z" fill="#E6E6E6"/>
<path d="M381.174 175.221H381.968L386.756 130.754C386.769 130.632 386.757 130.508 386.719 130.392C386.681 130.275 386.619 130.167 386.537 130.076C386.455 129.985 386.355 129.912 386.243 129.862C386.131 129.812 386.01 129.786 385.887 129.786H382.049C381.817 129.786 381.594 129.879 381.43 130.043C381.266 130.207 381.174 130.429 381.174 130.661V175.221Z" fill="#0F4901"/>
<path d="M325.654 177.385H326.455L331.243 136.682C331.254 136.585 331.245 136.488 331.216 136.396C331.187 136.303 331.139 136.218 331.074 136.146C331.01 136.074 330.931 136.016 330.843 135.976C330.755 135.936 330.659 135.916 330.562 135.916H326.34C326.158 135.916 325.984 135.989 325.856 136.117C325.727 136.246 325.655 136.42 325.654 136.602V177.385Z" fill="#0F4901"/>
</svg>
