<svg width="36" height="34" viewBox="0 0 36 34" fill="none" xmlns="http://www.w3.org/2000/svg">
<path d="M35.3333 3.8335V0.833496L32.3333 0.500163C32.1667 0.500163 31.1667 0.333496 29.5 0.333496C22.6667 0.333496 17.6667 2.3335 14.8333 5.8335C12.6667 4.50016 9.66666 3.66683 6.16666 3.66683C4.49999 3.66683 3.33332 3.8335 3.33332 3.8335L0.166656 4.3335L0.333323 7.16683C0.49999 12.1668 2.99999 21.6668 11.6667 21.6668H12V27.3335C5.66666 28.1668 0.333323 30.3335 0.333323 30.3335V33.6668H33.6667V30.3335C33.6667 30.3335 28.3333 28.1668 22 27.3335V22.0002C32.5 21.8335 35.3333 10.0002 35.3333 3.8335ZM17 27.0002H15.3333V17.6668C15.3333 17.6668 15 12.0002 10.3333 12.0002C10.3333 12.0002 12.8333 13.3335 13.5 18.1668C12.8333 18.3335 12.1667 18.3335 11.6667 18.3335C3.99999 18.3335 3.66666 7.16683 3.66666 7.16683C3.66666 7.16683 4.66666 7.00016 6.16666 7.00016C9.33332 7.00016 14.5 7.66683 16 12.1668C16.8333 4.66683 25.3333 3.66683 29.5 3.66683C31 3.66683 32 3.8335 32 3.8335C32 3.8335 32 18.8335 21.5 18.8335H20.3333C20.3333 15.5002 23.6667 10.5002 23.6667 10.5002C18.6667 12.1668 18.6667 18.6668 18.6667 18.6668V27.0002H17Z" fill="#0F4901"/>
</svg>
